# Blender v2.92.0 OBJ File: ''
# www.blender.org
mtllib orientation_test.mtl
o mesh-0_mesh-0-geometry-model.005
v 0.500000 0.000000 0.500000
v -0.500000 0.000000 0.500000
v 0.500000 1.000000 0.500000
v -0.500000 1.000000 0.500000
v 0.500000 1.000000 0.500000
v -0.500000 1.000000 0.500000
v 0.500000 1.000000 -0.500000
v -0.500000 1.000000 -0.500000
v 0.500000 1.000000 -0.500000
v -0.500000 1.000000 -0.500000
v 0.500000 -0.000000 -0.500000
v -0.500000 -0.000000 -0.500000
v 0.500000 -0.000000 -0.500000
v -0.500000 -0.000000 -0.500000
v 0.500000 0.000000 0.500000
v -0.500000 0.000000 0.500000
v -0.500000 0.000000 0.500000
v -0.500000 -0.000000 -0.500000
v -0.500000 1.000000 0.500000
v -0.500000 1.000000 -0.500000
v 0.500000 -0.000000 -0.500000
v 0.500000 0.000000 0.500000
v 0.500000 1.000000 -0.500000
v 0.500000 1.000000 0.500000
v 0.500000 -0.000000 -0.500000
v 0.500000 0.000000 0.500000
v 1.500000 -0.000000 -0.500000
v 1.500000 0.000000 0.500000
v -0.500000 -0.000000 -0.500000
v -0.500000 0.000000 0.500000
v -1.500000 -0.000000 -0.500000
v -1.500000 0.000000 0.500000
v 0.500000 0.000000 0.500000
v 0.500000 0.000000 1.500000
v -0.500000 0.000000 0.500000
v -0.500000 0.000000 1.500000
v 0.500000 -0.000000 -0.500000
v 0.500000 -0.000000 -1.500000
v -0.500000 -0.000000 -0.500000
v -0.500000 -0.000000 -1.500000
vt 0.665897 0.665336
vt 0.665897 0.998669
vt 0.999231 0.665336
vt 0.999231 0.998669
vt 0.333333 0.665336
vt 0.333333 0.998669
vt 0.666667 0.665336
vt 0.666667 0.998669
vt 1.000204 0.664472
vt 1.000204 0.331139
vt 0.666871 0.664472
vt 0.666871 0.331139
vt 0.333048 0.330845
vt 0.333048 0.665125
vt 0.667327 0.330845
vt 0.667327 0.665125
vt 0.001331 0.665336
vt 0.001331 0.998669
vt 0.334664 0.665336
vt 0.334664 0.998669
vt -0.000098 0.331817
vt -0.000098 0.665151
vt 0.333235 0.331817
vt 0.333235 0.665151
vt -0.000098 0.331817
vt 0.333235 0.331817
vt -0.000098 0.665150
vt 0.333235 0.665150
vt 0.001330 0.665336
vt 0.334664 0.665336
vt 0.001331 0.998669
vt 0.334664 0.998670
vt 0.665897 0.665336
vt 0.665897 0.998670
vt 0.999231 0.665336
vt 0.999231 0.998669
vt 0.666871 0.664472
vt 0.666871 0.331139
vt 1.000204 0.664472
vt 1.000204 0.331139
vn 0.0000 0.0000 1.0000
vn 0.0000 1.0000 -0.0000
vn 0.0000 -0.0000 -1.0000
vn 0.0000 -1.0000 0.0000
vn -1.0000 0.0000 0.0000
vn 1.0000 0.0000 0.0000
usemtl mesh-0-material-0.005
s off
f 1/1/1 3/2/1 2/3/1
f 3/2/1 4/4/1 2/3/1
f 5/5/2 7/6/2 6/7/2
f 7/6/2 8/8/2 6/7/2
f 9/9/3 11/10/3 10/11/3
f 11/10/3 12/12/3 10/11/3
f 13/13/4 15/14/4 14/15/4
f 15/14/4 16/16/4 14/15/4
f 17/17/5 19/18/5 18/19/5
f 19/18/5 20/20/5 18/19/5
f 21/21/6 23/22/6 22/23/6
f 23/22/6 24/24/6 22/23/6
f 25/25/4 27/26/4 26/27/4
f 27/26/4 28/28/4 26/27/4
f 29/29/2 31/30/2 30/31/2
f 31/30/2 32/32/2 30/31/2
f 33/33/2 35/34/2 34/35/2
f 35/34/2 36/36/2 34/35/2
f 37/37/4 39/38/4 38/39/4
f 39/38/4 40/40/4 38/39/4
